<svg width="24.585938" height="30.500000" viewBox="0 0 24.5859 30.5" fill="none" xmlns="http://www.w3.org/2000/svg" xmlns:xlink="http://www.w3.org/1999/xlink">
	<desc>
			Created with Pixso.
	</desc>
	<defs/>
	<path id="Vector" d="M13.45 1.5L13.45 26.43L22.18 16.88C22.63 16.38 23.39 16.36 23.87 16.84C24.35 17.32 24.37 18.11 23.91 18.61L13.94 29.51C13.49 29.98 12.89 30.25 12.25 30.25C11.6 30.25 11 29.98 10.53 29.49L0.58 18.61C0.35 18.37 0.25 18.06 0.25 17.75C0.25 17.41 0.37 17.09 0.62 16.84C1.1 16.36 1.86 16.38 2.31 16.88L11.04 26.47L11.04 1.5C11.04 0.81 11.58 0.25 12.25 0.25C12.91 0.25 13.45 0.81 13.45 1.5Z" fill="#FFFFFF" fill-opacity="1.000000" fill-rule="nonzero"/>
	<path id="Vector" d="M13.45 26.43L22.18 16.88C22.63 16.38 23.39 16.36 23.87 16.84C24.35 17.32 24.37 18.11 23.91 18.61L13.94 29.51C13.49 29.98 12.89 30.25 12.25 30.25C11.6 30.25 11 29.98 10.53 29.49L0.58 18.61C0.35 18.37 0.25 18.06 0.25 17.75C0.25 17.41 0.37 17.09 0.62 16.84C1.1 16.36 1.86 16.38 2.31 16.88L11.04 26.47L11.04 1.5C11.04 0.81 11.58 0.25 12.25 0.25C12.91 0.25 13.45 0.81 13.45 1.5L13.45 26.43Z" stroke="#FFFFFF" stroke-opacity="1.000000" stroke-width="0.500000"/>
</svg>
