<svg width="56.000000" height="56.000000" viewBox="0 0 56 56" fill="none" xmlns="http://www.w3.org/2000/svg" xmlns:xlink="http://www.w3.org/1999/xlink">
	<desc>
			Created with Pixso.
	</desc>
	<defs>
		<clipPath id="clip1516_322">
			<rect id="success-svgrepo-com 1" rx="0.000000" width="55.000000" height="55.000000" transform="translate(0.500000 0.500000)" fill="white" fill-opacity="0"/>
		</clipPath>
	</defs>
	<rect id="success-svgrepo-com 1" rx="0.000000" width="55.000000" height="55.000000" transform="translate(0.500000 0.500000)" fill="#FFFFFF" fill-opacity="0"/>
	<g clip-path="url(#clip1516_322)">
		<path id="Vector" d="M0 0L56 0L56 56L0 56L0 0Z" fill="#FFFFFF" fill-opacity="0.010000" fill-rule="evenodd"/>
		<path id="Vector" d="M28 4.66L34.12 9.13L41.71 9.12L44.04 16.34L50.19 20.78L47.83 27.99L50.19 35.21L44.04 39.65L41.71 46.87L34.12 46.86L28 51.33L21.87 46.86L14.28 46.87L11.95 39.65L5.8 35.21L8.16 27.99L5.8 20.78L11.95 16.34L14.28 9.12L21.87 9.13L28 4.66Z" fill="#60C880" fill-opacity="1.000000" fill-rule="nonzero"/>
		<path id="Vector" d="M34.12 9.13L41.71 9.12L44.04 16.34L50.19 20.78L47.83 27.99L50.19 35.21L44.04 39.65L41.71 46.87L34.12 46.86L28 51.33L21.87 46.86L14.28 46.87L11.95 39.65L5.8 35.21L8.16 27.99L5.8 20.78L11.95 16.34L14.28 9.12L21.87 9.13L28 4.66L34.12 9.13Z" stroke="#FFFFFF" stroke-opacity="1.000000" stroke-width="2.500000" stroke-linejoin="round"/>
		<path id="Vector" d="M19.83 27.99L25.66 33.83L37.33 22.16" stroke="#FFFFFF" stroke-opacity="1.000000" stroke-width="2.500000" stroke-linejoin="round" stroke-linecap="round"/>
	</g>
</svg>
