<svg width="50.000000" height="50.000000" viewBox="0 0 50 50" fill="none" xmlns="http://www.w3.org/2000/svg" xmlns:xlink="http://www.w3.org/1999/xlink">
	<desc>
			Created with Pixso.
	</desc>
	<defs>
		<clipPath id="clip1516_311">
			<rect id="chat-round-line-svgrepo-com (1) 1" rx="0.000000" width="49.000000" height="49.000000" transform="translate(0.500000 0.500000)" fill="white" fill-opacity="0"/>
		</clipPath>
	</defs>
	<rect id="chat-round-line-svgrepo-com (1) 1" rx="0.000000" width="49.000000" height="49.000000" transform="translate(0.500000 0.500000)" fill="#FFFFFF" fill-opacity="0"/>
	<g clip-path="url(#clip1516_311)">
		<path id="Vector" d="M45.83 24.99C45.83 13.49 36.5 4.16 25 4.16C13.49 4.16 4.16 13.49 4.16 24.99C4.16 28.33 4.94 31.48 6.34 34.27C6.71 35.01 6.83 35.86 6.61 36.66L5.37 41.3C4.83 43.31 6.68 45.16 8.69 44.62L13.33 43.38C14.13 43.16 14.98 43.28 15.72 43.65C18.51 45.05 21.66 45.83 25 45.83C36.5 45.83 45.83 36.5 45.83 24.99Z" stroke="#FFFFFF" stroke-opacity="1.000000" stroke-width="2.000000"/>
		<path id="Vector" d="M16.66 21.87L33.33 21.87" stroke="#FFFFFF" stroke-opacity="1.000000" stroke-width="2.000000" stroke-linecap="round"/>
		<path id="Vector" d="M16.66 29.16L28.12 29.16" stroke="#FFFFFF" stroke-opacity="1.000000" stroke-width="2.000000" stroke-linecap="round"/>
	</g>
</svg>
