<svg width="112.071289" height="112.070374" viewBox="0 0 112.071 112.07" fill="none" xmlns="http://www.w3.org/2000/svg" xmlns:xlink="http://www.w3.org/1999/xlink">
	<desc>
			Created with Pixso.
	</desc>
	<defs/>
	<circle id="Ellipse 80" cx="56.000000" cy="56.000000" r="55.000000" fill="#FFFFFF" fill-opacity="1.000000"/>
	<circle id="Ellipse 80" cx="56.000000" cy="56.000000" r="54.500000" stroke="#D9D9D9" stroke-opacity="1.000000" stroke-width="1.000000"/>
	<path id="Ellipse 81" d="M56 1C68.96 1 80.88 5.49 90.28 13.01C100.42 21.07 106.94 32.02 109.61 43.76C112.5 56.39 110.77 69.01 105.54 79.86C99.93 91.53 90.7 100.33 79.85 105.54C68.18 111.17 55.49 112.29 43.76 109.6C31.12 106.73 20.5 99.7 13 90.28C4.91 80.15 1 68.03 1 56L56 56L56 1Z" fill="#FFFFFF" fill-opacity="0" fill-rule="evenodd"/>
	<path id="Ellipse 81" d="M90.28 13.01C100.42 21.07 106.94 32.02 109.61 43.76C112.5 56.39 110.77 69.01 105.54 79.86C99.93 91.53 90.7 100.33 79.85 105.54C68.18 111.17 55.49 112.29 43.76 109.6C31.12 106.73 20.5 99.7 13 90.28C4.91 80.15 1 68.03 1 56L56 56L56 1C68.96 1 80.88 5.49 90.28 13.01Z" stroke="#60C880" stroke-opacity="1.000000" stroke-width="2.000000"/>
	<rect id="Rectangle 21560" x="54.000000" y="2.000000" width="4.000000" height="108.000000" fill="#FFFFFF" fill-opacity="1.000000"/>
	<rect id="Rectangle 21561" x="2.000000" y="58.000000" width="4.000000" height="108.000000" transform="rotate(-90 2.000000 58.000000)" fill="#FFFFFF" fill-opacity="1.000000"/>
</svg>
