<svg width="42.428711" height="50.501099" viewBox="0 0 42.4287 50.5011" fill="none" xmlns="http://www.w3.org/2000/svg" xmlns:xlink="http://www.w3.org/1999/xlink">
	<desc>
			Created with Pixso.
	</desc>
	<defs/>
	<path id="Vector" d="M41.46 48.56L39.85 48.56C40.77 47.4 41.14 45.9 40.86 44.44L38.11 30.03C37.77 28.22 36.47 26.73 34.71 26.14L27.72 23.81C27.59 23.77 27.47 23.75 27.34 23.76L27.34 21.9C28.68 20.4 29.41 18.49 29.41 16.46L29.41 14.17C30.61 13.77 31.48 12.63 31.48 11.3L31.48 6.13C31.48 2.75 28.73 0 25.34 0L17.08 0C15.71 0 14.55 0.9 14.17 2.15C12.33 2.54 10.94 4.17 10.94 6.13L10.94 11.3C10.94 12.63 11.81 13.77 13.01 14.17L13.01 16.16C13.01 18.29 13.79 20.27 15.07 21.77L15.07 23.76C14.95 23.75 14.83 23.77 14.7 23.81L7.7 26.14C5.95 26.73 4.65 28.22 4.3 30.03L1.56 44.44C1.28 45.9 1.65 47.4 2.57 48.56L0.96 48.56C0.43 48.56 0 48.99 0 49.53C0 50.06 0.43 50.5 0.96 50.5L6.57 50.5L6.74 50.5L8.81 50.5L33.61 50.5L35.67 50.5L35.85 50.5L41.46 50.5C41.99 50.5 42.42 50.06 42.42 49.53C42.42 48.99 41.99 48.56 41.46 48.56ZM16.04 25.7C16.58 25.7 17.01 25.26 17.01 24.73L17.01 23.45C18.18 24.18 19.52 24.62 20.96 24.66C21.04 24.66 21.13 24.66 21.21 24.66C22.71 24.66 24.15 24.26 25.41 23.51L25.41 24.73C25.41 25.26 25.84 25.7 26.38 25.7C26.39 25.7 26.4 25.7 26.42 25.7C26.16 28.08 23.92 29.96 21.21 29.96C18.49 29.96 16.25 28.08 16 25.7C16.02 25.7 16.03 25.7 16.04 25.7ZM12.88 11.3L12.88 6.13C12.88 4.95 13.83 4 15.01 4C15.54 4 15.98 3.57 15.98 3.03C15.98 2.42 16.47 1.93 17.08 1.93L25.34 1.93C27.66 1.93 29.54 3.82 29.54 6.13L29.54 11.3C29.54 11.48 29.49 11.66 29.41 11.81L29.41 10.26C29.41 8.59 28.05 7.23 26.38 7.23L16.04 7.23C14.37 7.23 13.01 8.59 13.01 10.26L13.01 11.81C12.93 11.66 12.88 11.48 12.88 11.3ZM14.95 10.26C14.95 9.66 15.44 9.17 16.04 9.17L26.38 9.17C26.98 9.17 27.47 9.66 27.47 10.26L27.47 16.46C27.47 18.17 26.8 19.77 25.57 20.96C24.35 22.15 22.73 22.78 21.02 22.72C17.67 22.62 14.95 19.68 14.95 16.16L14.95 10.26ZM8.81 48.56C8.77 48.56 8.75 48.53 8.75 48.49L8.75 35.06C8.75 35.03 8.77 35 8.81 35L33.61 35C33.64 35 33.67 35.03 33.67 35.06L33.67 48.49C33.67 48.53 33.64 48.56 33.61 48.56L8.81 48.56ZM35.67 48.56L35.61 48.56C35.61 48.54 35.61 48.52 35.61 48.49L35.61 35.06C35.61 33.96 34.71 33.06 33.61 33.06L8.81 33.06C7.71 33.06 6.81 33.96 6.81 35.06L6.81 48.49C6.81 48.52 6.81 48.54 6.81 48.56L6.74 48.56L6.57 48.56C5.63 48.56 4.74 48.14 4.13 47.41C3.53 46.68 3.29 45.73 3.46 44.8L6.21 30.39C6.42 29.27 7.23 28.34 8.32 27.98L14.1 26.05C14.53 29.34 17.55 31.9 21.21 31.9C24.87 31.9 27.89 29.34 28.32 26.05L34.1 27.98C35.19 28.34 36 29.27 36.21 30.39L38.96 44.8C39.13 45.73 38.89 46.68 38.29 47.41C37.68 48.14 36.79 48.56 35.85 48.56L35.67 48.56Z" fill="#FFFFFF" fill-opacity="1.000000" fill-rule="nonzero"/>
</svg>
