<svg width="60.000000" height="53.510010" viewBox="0 0 60 53.51" fill="none" xmlns="http://www.w3.org/2000/svg" xmlns:xlink="http://www.w3.org/1999/xlink">
	<desc>
			Created with Pixso.
	</desc>
	<defs/>
	<path id="Vector" d="M20.77 0.05C17.34 0.3 15.28 0.82 12.8 2.07C7.61 4.68 3.15 10.51 1.23 17.18C-0.05 21.6 -0.35 26.75 0.4 31.29C1.5 37.95 4.7 44.15 8.98 47.93C12.44 50.99 16.3 52.62 21.67 53.31C23.75 53.58 30.95 53.57 32.92 53.31C33.68 53.2 34.49 53.04 34.73 52.96C34.96 52.89 35.21 52.85 35.28 52.89C35.34 52.93 35.33 52.88 35.25 52.78C35.12 52.63 35.13 52.61 35.3 52.59C35.43 52.59 35.46 52.57 35.35 52.53C35.27 52.5 35.81 52.27 36.55 52.03C42.32 50.16 46.58 46.95 49.52 42.27C49.83 41.78 50.04 41.36 49.99 41.34C49.7 41.25 47.51 42.24 46.62 42.87C46.43 43 46.4 43.01 46.47 42.89C46.77 42.38 48.13 40.5 48.8 39.65C49.64 38.59 51.71 36.41 51.87 36.41C51.92 36.41 52.02 36.57 52.08 36.74L52.2 37.09L52.34 36.57C53.13 33.47 53.42 31.46 53.49 28.16C53.52 26.68 53.5 25.39 53.45 25.25C53.35 25.01 53.35 25.01 52.88 25.43C52.34 25.9 51.21 27.3 50.78 28.03C50.44 28.63 50.43 28.53 50.71 27C50.98 25.46 51.35 24.03 51.82 22.64C52.33 21.11 52.3 21.14 52.63 21.77C52.8 22.06 52.95 22.29 52.96 22.27C53 22.23 52.61 20.74 52.25 19.54C51.42 16.81 49.94 13.65 48.48 11.52C48.27 11.19 48.05 10.81 47.99 10.69C47.92 10.49 47.86 10.58 47.63 11.32C47.47 11.81 47.28 12.57 47.21 13C47.14 13.43 47.04 13.72 47.01 13.63C46.48 12.08 45.95 10.61 45.35 9.09C44.64 7.26 44.6 7.19 43.97 6.57C42.6 5.22 40.03 3.53 37.97 2.61C35.31 1.43 31.8 0.59 27.92 0.21C25.9 0.01 22.42 -0.07 20.77 0.05ZM22.29 4.64C24.98 5.25 27.21 6.39 29.43 8.28C30.91 9.55 32.74 11.8 33.77 13.65C34.21 14.45 34.1 14.44 33.62 13.63C32.59 11.94 30.71 9.89 29.08 8.67C28.07 7.91 26.2 6.9 24.93 6.44C22.14 5.41 18.87 5.33 16.05 6.21C13.65 6.98 11.52 8.3 9.53 10.29C6.48 13.34 4.58 17.16 3.71 21.99C3.47 23.34 3.44 23.79 3.43 26.07C3.42 28.94 3.55 30.03 4.15 32.39C5.01 35.72 6.59 38.79 8.69 41.18C11.04 43.87 13.9 45.55 17.38 46.3C18.71 46.59 21.76 46.57 23.14 46.26C25.87 45.65 28.12 44.49 30.43 42.5L31.21 41.82L30.33 42.67C28.09 44.81 25.23 46.32 22.13 46.98C20.62 47.31 17.78 47.31 16.25 46.98C11.28 45.92 7.12 42.59 4.49 37.55C1.39 31.67 0.88 24.24 3.12 17.68C4.31 14.2 6.04 11.45 8.59 9C11.26 6.44 14.34 4.93 17.94 4.4C18.7 4.28 21.41 4.44 22.29 4.64ZM30.08 5.47C30.74 5.72 31.17 5.8 32.31 5.88C33.16 5.93 33.84 6.04 33.98 6.12C34.21 6.25 34.06 6.28 32.48 6.34L30.71 6.41L29.93 5.8C29.5 5.45 29.18 5.17 29.21 5.17C29.24 5.17 29.64 5.31 30.08 5.47ZM33.88 7.64C34.11 7.8 35.02 8.44 35.88 9.05C36.75 9.65 37.59 10.3 37.73 10.5C37.89 10.71 37.94 10.82 37.85 10.78C33.97 9.12 34.32 9.31 33.41 8.37C32.79 7.74 32.46 7.48 32.15 7.38C31.77 7.28 31.8 7.27 32.59 7.3C33.34 7.32 33.5 7.36 33.88 7.64ZM42.26 10.83C44.96 14.44 46.6 18.53 47.37 23.57C47.55 24.79 47.6 25.54 47.6 27.58C47.61 30.3 47.51 31.33 47.04 33.69C46.01 38.88 43.9 43.01 40.41 46.7C39.75 47.39 39.76 47.38 40.61 46.35C44.04 42.16 45.98 37.83 46.84 32.39C47.13 30.56 47.24 26.61 47.04 24.74C46.4 18.29 44.12 13.05 39.85 8.2L38.98 7.21L40.18 8.43C40.84 9.1 41.78 10.17 42.26 10.83ZM23.22 7.92C27.69 9.09 31.23 12.13 33.45 16.71C36.53 23.07 36.3 30.82 32.86 36.82C32.03 38.27 31.28 39.24 30.02 40.49C27.91 42.59 25.54 43.86 22.72 44.42C21.61 44.64 19.23 44.66 18.1 44.47C17.26 44.32 15.38 43.76 15.38 43.65C15.38 43.62 15.68 43.29 16.04 42.9C18.1 40.71 19.39 38.26 20.14 35.09C20.68 32.84 20.87 29.57 20.6 27.24C20.45 26.02 20.31 25.65 20.29 26.51C20.29 27.34 20.02 29.32 19.71 30.81C19.21 33.16 18.13 35.98 17.13 37.54C16.12 39.1 14.45 40.56 12.77 41.36L12.01 41.73L11.41 41.21C11.09 40.92 10.49 40.31 10.1 39.85C5.49 34.47 4.03 26.36 6.4 19.25C8.44 13.14 13 8.74 18.34 7.72C19.54 7.49 21.98 7.59 23.22 7.92ZM36.78 11.15L37.87 11.58L38.97 12.91C41.69 16.21 42.45 17.33 42.61 18.28L42.68 18.7L42.33 18.38C41.9 17.99 39.67 16.21 38.6 15.42C38.08 15.02 37.7 14.65 37.39 14.17C37.14 13.79 36.52 12.84 36.01 12.07C35.5 11.29 35.04 10.59 35 10.52C34.93 10.42 35.02 10.42 35.31 10.55C35.53 10.64 36.2 10.92 36.78 11.15ZM34.28 14.63C34.24 14.66 34.18 14.6 34.15 14.5C34.09 14.35 34.1 14.34 34.2 14.44C34.28 14.51 34.31 14.59 34.28 14.63ZM34.48 15.04C34.45 15.07 34.39 15.02 34.36 14.92C34.3 14.77 34.31 14.76 34.41 14.86C34.48 14.93 34.52 15.01 34.48 15.04ZM39.55 17.36C40.24 17.93 41.1 18.67 41.46 19.01L42.12 19.64L42.97 22.02C43.91 24.69 44 25.06 44.01 25.81L44.01 26.33L43.68 25.81C43.17 24.98 42.18 23.82 40.87 22.46L39.65 21.21L39.26 19.34C38.86 17.38 38.82 17.25 38.4 16.68C38.27 16.51 38.18 16.35 38.22 16.35C38.26 16.35 38.85 16.81 39.55 17.36ZM41.58 25.12C41.88 25.49 42.15 25.94 42.18 26.12C42.21 26.29 42.28 27.39 42.34 28.55C42.45 30.44 42.49 30.76 42.73 31.35L42.99 32.02L42.76 33.54L42.52 35.05L42.13 34.07C41.72 33.05 41.07 31.76 40.53 31L40.23 30.54L40.3 27.65C40.38 24.6 40.38 24.62 39.89 23.3C39.8 23.06 40.77 24.1 41.58 25.12ZM40.94 34.83C41.08 35.14 41.19 35.45 41.19 35.51C41.19 35.57 41.02 36.21 40.81 36.91L40.42 38.21L40.64 38.88C40.86 39.53 40.86 39.58 40.69 40.28C40.6 40.68 40.48 41.01 40.45 41.01C40.42 41.01 40.3 40.81 40.19 40.56C40.08 40.32 39.72 39.7 39.38 39.2L38.77 38.28L39.35 36.2C39.68 35.06 39.94 34 39.94 33.83C39.94 33.67 39.87 33.28 39.78 32.96C39.7 32.65 39.62 32.37 39.62 32.34C39.62 32.25 40.67 34.23 40.94 34.83ZM38.25 40.94C39.01 42.06 39.05 42.15 38.59 41.63C38.3 41.32 38.05 41.09 38.03 41.11C38 41.14 37.4 41.9 36.68 42.78C34.95 44.92 35.04 44.77 35.36 45.2C35.67 45.63 36.15 46.43 36 46.28C35.82 46.11 34.92 44.84 34.92 44.76C34.92 44.67 36.31 42.47 37.13 41.24L37.64 40.49L37.38 39.88C37.24 39.56 37.18 39.37 37.25 39.48C37.33 39.59 37.76 40.24 38.25 40.94ZM34.13 46.88C34.45 47.28 34.67 47.59 34.62 47.59C34.57 47.59 34.38 47.42 34.21 47.21L33.91 46.85L32.3 48.07C31.41 48.74 30.67 49.3 30.65 49.32C30.63 49.35 30.81 49.65 31.05 50C31.28 50.36 31.47 50.69 31.47 50.76C31.47 50.82 31.34 50.66 31.17 50.4C31.01 50.15 30.75 49.83 30.6 49.69C30.45 49.54 30.33 49.4 30.33 49.36C30.33 49.31 31.01 48.66 31.87 47.89C33.12 46.76 33.41 46.45 33.39 46.24C33.38 46.11 33.41 46.03 33.45 46.09C33.5 46.14 33.8 46.49 34.13 46.88ZM29.49 51.24C29.79 51.53 29.55 51.42 29.21 51.11L28.98 50.91L28.42 51.24L27.87 51.57L28.31 51.17L28.75 50.78L28.59 50.41C28.43 50.05 28.43 50.05 28.83 50.52C29.05 50.78 29.34 51.1 29.49 51.24Z" fill="#FFFFFF" fill-opacity="1.000000" fill-rule="nonzero"/>
	<mask id="mask1516_486" mask-type="alpha" maskUnits="userSpaceOnUse" x="0.000000" y="0.000000" width="53.508789" height="53.510010">
		<path id="Vector" d="M20.77 0.05C17.34 0.3 15.28 0.82 12.8 2.07C7.61 4.68 3.15 10.51 1.23 17.18C-0.05 21.6 -0.35 26.75 0.4 31.29C1.5 37.95 4.7 44.15 8.98 47.93C12.44 50.99 16.3 52.62 21.67 53.31C23.75 53.58 30.95 53.57 32.92 53.31C33.68 53.2 34.49 53.04 34.73 52.96C34.96 52.89 35.21 52.85 35.28 52.89C35.34 52.93 35.33 52.88 35.25 52.78C35.12 52.63 35.13 52.61 35.3 52.59C35.43 52.59 35.46 52.57 35.35 52.53C35.27 52.5 35.81 52.27 36.55 52.03C42.32 50.16 46.58 46.95 49.52 42.27C49.83 41.78 50.04 41.36 49.99 41.34C49.7 41.25 47.51 42.24 46.62 42.87C46.43 43 46.4 43.01 46.47 42.89C46.77 42.38 48.13 40.5 48.8 39.65C49.64 38.59 51.71 36.41 51.87 36.41C51.92 36.41 52.02 36.57 52.08 36.74L52.2 37.09L52.34 36.57C53.13 33.47 53.42 31.46 53.49 28.16C53.52 26.68 53.5 25.39 53.45 25.25C53.35 25.01 53.35 25.01 52.88 25.43C52.34 25.9 51.21 27.3 50.78 28.03C50.44 28.63 50.43 28.53 50.71 27C50.98 25.46 51.35 24.03 51.82 22.64C52.33 21.11 52.3 21.14 52.63 21.77C52.8 22.06 52.95 22.29 52.96 22.27C53 22.23 52.61 20.74 52.25 19.54C51.42 16.81 49.94 13.65 48.48 11.52C48.27 11.19 48.05 10.81 47.99 10.69C47.92 10.49 47.86 10.58 47.63 11.32C47.47 11.81 47.28 12.57 47.21 13C47.14 13.43 47.04 13.72 47.01 13.63C46.48 12.08 45.95 10.61 45.35 9.09C44.64 7.26 44.6 7.19 43.97 6.57C42.6 5.22 40.03 3.53 37.97 2.61C35.31 1.43 31.8 0.59 27.92 0.21C25.9 0.01 22.42 -0.07 20.77 0.05ZM22.29 4.64C24.98 5.25 27.21 6.39 29.43 8.28C30.91 9.55 32.74 11.8 33.77 13.65C34.21 14.45 34.1 14.44 33.62 13.63C32.59 11.94 30.71 9.89 29.08 8.67C28.07 7.91 26.2 6.9 24.93 6.44C22.14 5.41 18.87 5.33 16.05 6.21C13.65 6.98 11.52 8.3 9.53 10.29C6.48 13.34 4.58 17.16 3.71 21.99C3.47 23.34 3.44 23.79 3.43 26.07C3.42 28.94 3.55 30.03 4.15 32.39C5.01 35.72 6.59 38.79 8.69 41.18C11.04 43.87 13.9 45.55 17.38 46.3C18.71 46.59 21.76 46.57 23.14 46.26C25.87 45.65 28.12 44.49 30.43 42.5L31.21 41.82L30.33 42.67C28.09 44.81 25.23 46.32 22.13 46.98C20.62 47.31 17.78 47.31 16.25 46.98C11.28 45.92 7.12 42.59 4.49 37.55C1.39 31.67 0.88 24.24 3.12 17.68C4.31 14.2 6.04 11.45 8.59 9C11.26 6.44 14.34 4.93 17.94 4.4C18.7 4.28 21.41 4.44 22.29 4.64ZM30.08 5.47C30.74 5.72 31.17 5.8 32.31 5.88C33.16 5.93 33.84 6.04 33.98 6.12C34.21 6.25 34.06 6.28 32.48 6.34L30.71 6.41L29.93 5.8C29.5 5.45 29.18 5.17 29.21 5.17C29.24 5.17 29.64 5.31 30.08 5.47ZM33.88 7.64C34.11 7.8 35.02 8.44 35.88 9.05C36.75 9.65 37.59 10.3 37.73 10.5C37.89 10.71 37.94 10.82 37.85 10.78C33.97 9.12 34.32 9.31 33.41 8.37C32.79 7.74 32.46 7.48 32.15 7.38C31.77 7.28 31.8 7.27 32.59 7.3C33.34 7.32 33.5 7.36 33.88 7.64ZM42.26 10.83C44.96 14.44 46.6 18.53 47.37 23.57C47.55 24.79 47.6 25.54 47.6 27.58C47.61 30.3 47.51 31.33 47.04 33.69C46.01 38.88 43.9 43.01 40.41 46.7C39.75 47.39 39.76 47.38 40.61 46.35C44.04 42.16 45.98 37.83 46.84 32.39C47.13 30.56 47.24 26.61 47.04 24.74C46.4 18.29 44.12 13.05 39.85 8.2L38.98 7.21L40.18 8.43C40.84 9.1 41.78 10.17 42.26 10.83ZM23.22 7.92C27.69 9.09 31.23 12.13 33.45 16.71C36.53 23.07 36.3 30.82 32.86 36.82C32.03 38.27 31.28 39.24 30.02 40.49C27.91 42.59 25.54 43.86 22.72 44.42C21.61 44.64 19.23 44.66 18.1 44.47C17.26 44.32 15.38 43.76 15.38 43.65C15.38 43.62 15.68 43.29 16.04 42.9C18.1 40.71 19.39 38.26 20.14 35.09C20.68 32.84 20.87 29.57 20.6 27.24C20.45 26.02 20.31 25.65 20.29 26.51C20.29 27.34 20.02 29.32 19.71 30.81C19.21 33.16 18.13 35.98 17.13 37.54C16.12 39.1 14.45 40.56 12.77 41.36L12.01 41.73L11.41 41.21C11.09 40.92 10.49 40.31 10.1 39.85C5.49 34.47 4.03 26.36 6.4 19.25C8.44 13.14 13 8.74 18.34 7.72C19.54 7.49 21.98 7.59 23.22 7.92ZM36.78 11.15L37.87 11.58L38.97 12.91C41.69 16.21 42.45 17.33 42.61 18.28L42.68 18.7L42.33 18.38C41.9 17.99 39.67 16.21 38.6 15.42C38.08 15.02 37.7 14.65 37.39 14.17C37.14 13.79 36.52 12.84 36.01 12.07C35.5 11.29 35.04 10.59 35 10.52C34.93 10.42 35.02 10.42 35.31 10.55C35.53 10.64 36.2 10.92 36.78 11.15ZM34.28 14.63C34.24 14.66 34.18 14.6 34.15 14.5C34.09 14.35 34.1 14.34 34.2 14.44C34.28 14.51 34.31 14.59 34.28 14.63ZM34.48 15.04C34.45 15.07 34.39 15.02 34.36 14.92C34.3 14.77 34.31 14.76 34.41 14.86C34.48 14.93 34.52 15.01 34.48 15.04ZM39.55 17.36C40.24 17.93 41.1 18.67 41.46 19.01L42.12 19.64L42.97 22.02C43.91 24.69 44 25.06 44.01 25.81L44.01 26.33L43.68 25.81C43.17 24.98 42.18 23.82 40.87 22.46L39.65 21.21L39.26 19.34C38.86 17.38 38.82 17.25 38.4 16.68C38.27 16.51 38.18 16.35 38.22 16.35C38.26 16.35 38.85 16.81 39.55 17.36ZM41.58 25.12C41.88 25.49 42.15 25.94 42.18 26.12C42.21 26.29 42.28 27.39 42.34 28.55C42.45 30.44 42.49 30.76 42.73 31.35L42.99 32.02L42.76 33.54L42.52 35.05L42.13 34.07C41.72 33.05 41.07 31.76 40.53 31L40.23 30.54L40.3 27.65C40.38 24.6 40.38 24.62 39.89 23.3C39.8 23.06 40.77 24.1 41.58 25.12ZM40.94 34.83C41.08 35.14 41.19 35.45 41.19 35.51C41.19 35.57 41.02 36.21 40.81 36.91L40.42 38.21L40.64 38.88C40.86 39.53 40.86 39.58 40.69 40.28C40.6 40.68 40.48 41.01 40.45 41.01C40.42 41.01 40.3 40.81 40.19 40.56C40.08 40.32 39.72 39.7 39.38 39.2L38.77 38.28L39.35 36.2C39.68 35.06 39.94 34 39.94 33.83C39.94 33.67 39.87 33.28 39.78 32.96C39.7 32.65 39.62 32.37 39.62 32.34C39.62 32.25 40.67 34.23 40.94 34.83ZM38.25 40.94C39.01 42.06 39.05 42.15 38.59 41.63C38.3 41.32 38.05 41.09 38.03 41.11C38 41.14 37.4 41.9 36.68 42.78C34.95 44.92 35.04 44.77 35.36 45.2C35.67 45.63 36.15 46.43 36 46.28C35.82 46.11 34.92 44.84 34.92 44.76C34.92 44.67 36.31 42.47 37.13 41.24L37.64 40.49L37.38 39.88C37.24 39.56 37.18 39.37 37.25 39.48C37.33 39.59 37.76 40.24 38.25 40.94ZM34.13 46.88C34.45 47.28 34.67 47.59 34.62 47.59C34.57 47.59 34.38 47.42 34.21 47.21L33.91 46.85L32.3 48.07C31.41 48.74 30.67 49.3 30.65 49.32C30.63 49.35 30.81 49.65 31.05 50C31.28 50.36 31.47 50.69 31.47 50.76C31.47 50.82 31.34 50.66 31.17 50.4C31.01 50.15 30.75 49.83 30.6 49.69C30.45 49.54 30.33 49.4 30.33 49.36C30.33 49.31 31.01 48.66 31.87 47.89C33.12 46.76 33.41 46.45 33.39 46.24C33.38 46.11 33.41 46.03 33.45 46.09C33.5 46.14 33.8 46.49 34.13 46.88ZM29.49 51.24C29.79 51.53 29.55 51.42 29.21 51.11L28.98 50.91L28.42 51.24L27.87 51.57L28.31 51.17L28.75 50.78L28.59 50.41C28.43 50.05 28.43 50.05 28.83 50.52C29.05 50.78 29.34 51.1 29.49 51.24Z" fill="#000000" fill-opacity="1.000000" fill-rule="nonzero"/>
	</mask>
	<g mask="url(#mask1516_486)">
		<ellipse id="Ellipse 82" cx="17.515625" cy="34.526367" rx="8.500000" ry="9.500000" fill="#60C880" fill-opacity="1.000000"/>
	</g>
	<path id="Vector" d="M19.97 9.32C18.61 10.78 17.63 13.06 17.41 15.31C17.35 15.93 17.32 16.05 17.22 15.9C17.16 15.8 16.86 15.33 16.55 14.86L15.99 14L16.04 15.67C16.08 17.08 16.15 17.53 16.41 18.56C16.76 19.92 17.42 21.41 18.16 22.52C18.62 23.21 20.23 25.02 20.39 25.02C20.43 25.02 20.34 24.33 20.18 23.48C19.74 21.16 19.56 19.21 19.56 16.9C19.56 14.55 19.74 12.73 20.2 10.46C20.37 9.6 20.49 8.88 20.47 8.86C20.45 8.84 20.22 9.05 19.97 9.32Z" fill="#60C880" fill-opacity="1.000000" fill-rule="evenodd"/>
	<path id="Vector" d="M22.53 16.49C22.52 18.44 22.37 19.56 21.86 21.58C21.69 22.25 21.53 22.89 21.49 22.99C21.36 23.41 21.78 22.79 22.12 22.04C22.77 20.66 23.05 18.33 22.81 16.29C22.61 14.55 22.54 14.59 22.53 16.49Z" fill="#60C880" fill-opacity="1.000000" fill-rule="evenodd"/>
	<path id="Vector" d="M30.76 20.03C30.4 20.6 28.98 21.93 27.82 22.75C26.73 23.55 26.57 23.59 26.56 23.1C26.56 22.9 26.05 21.68 25.97 21.68C25.85 21.68 23.58 24.35 22.87 25.31C22.3 26.1 22.09 26.64 21.77 28.28C21.6 29.11 21.48 29.79 21.5 29.81C21.51 29.82 21.79 29.58 22.11 29.26C24.07 27.35 25.7 26.07 28.48 24.25C29.47 23.6 30.42 22.9 30.6 22.7C31.1 22.13 31.3 21.5 31.25 20.64C31.19 19.72 31.06 19.55 30.76 20.03Z" fill="#60C880" fill-opacity="1.000000" fill-rule="evenodd"/>
	<path id="Vector" d="M7.5 20.11C8.06 21.98 9.77 25.05 11.19 26.75L11.72 27.37L11.25 27.45C11 27.5 10.58 27.56 10.31 27.6L9.84 27.69L10.76 28.69C12.37 30.43 14 31.74 15.61 32.55C16.33 32.91 17.98 33.48 18.3 33.48C18.6 33.48 18.58 33.39 18.11 32.46C17.25 30.76 15.21 27.92 13.19 25.62C11.1 23.23 7.34 19.6 7.5 20.11Z" fill="#60C880" fill-opacity="1.000000" fill-rule="evenodd"/>
	<path id="Vector" d="M11.41 20.13C11.5 20.22 11.96 20.6 12.43 20.98C15.29 23.34 17.53 26.74 18.1 29.62C18.16 29.93 18.28 30.8 18.36 31.54C18.45 32.27 18.53 32.9 18.55 32.93C18.68 33.05 18.88 31.34 18.88 30.3C18.88 29.33 18.84 29.01 18.59 28.26C17.64 25.37 15.1 22.39 11.88 20.37C11.54 20.15 11.33 20.05 11.41 20.13Z" fill="#60C880" fill-opacity="1.000000" fill-rule="evenodd"/>
	<path id="Vector" d="M30.95 24.89C29.31 26.28 26.97 27.58 23.57 29C22.69 29.37 21.97 29.69 21.97 29.73C21.97 29.87 23.72 30.07 24.54 30.02C25.23 29.97 25.49 29.9 26.15 29.57C28.26 28.5 30.1 26.81 31.41 24.73C31.56 24.49 31.67 24.29 31.66 24.3C31.64 24.3 31.33 24.56 30.95 24.89Z" fill="#60C880" fill-opacity="1.000000" fill-rule="evenodd"/>
	<path id="Vector" d="M9.47 32.6C8.28 32.81 8.25 32.86 9.08 33.35C9.47 33.58 10.04 33.9 10.35 34.05C10.87 34.31 10.9 34.34 10.71 34.48C10.55 34.6 10.61 34.67 11.49 35.07L12.44 35.53L11.72 36.1C11.33 36.41 11.01 36.7 11 36.73C11 36.82 12.44 37.48 13.19 37.73C13.65 37.88 14.07 37.93 15.25 37.93C16.06 37.93 16.76 37.88 16.8 37.84C16.95 37.7 14.49 35.4 12.94 34.24C12.54 33.93 12.26 33.69 12.3 33.69C12.34 33.69 12.81 33.9 13.34 34.16C14.35 34.67 15.6 35.55 16.46 36.38L16.98 36.88L16.92 36.31C16.77 35.1 15.8 33.76 14.51 32.97C14.18 32.77 13.9 32.64 13.87 32.66C13.85 32.69 14.18 32.98 14.61 33.33C15.41 33.95 16.19 34.92 16.48 35.61C16.74 36.24 16.66 36.24 16 35.64C15.32 35.01 14.17 34.2 13.4 33.8C13.14 33.66 12.47 33.4 11.91 33.22C10.84 32.87 10.79 32.75 11.71 32.75C12.51 32.75 13.42 32.94 13.95 33.21C14.44 33.47 14.6 33.44 14.27 33.15C13.6 32.57 11.17 32.28 9.47 32.6Z" fill="#60C880" fill-opacity="1.000000" fill-rule="evenodd"/>
	<path id="Vector" d="M23.31 32.99C22.45 33.29 21.86 33.68 21.25 34.4C20.82 34.88 20.09 36.03 20.09 36.22C20.09 36.25 20.7 36.08 21.44 35.82C22.2 35.57 23.28 35.27 23.87 35.16C24.83 34.96 27.08 34.7 27.16 34.78C27.18 34.79 26.7 34.91 26.1 35.03C24.78 35.31 23.09 35.87 21.77 36.45C20.73 36.91 19.88 37.4 19.88 37.54C19.89 37.81 21.84 38.81 22.91 39.08C23.63 39.27 25.63 39.31 26.17 39.16L26.46 39.07L25.88 38.35C25.57 37.96 25.31 37.62 25.31 37.6C25.31 37.59 25.66 37.6 26.07 37.63C26.71 37.68 28.62 37.52 28.74 37.4C28.76 37.38 28.7 37.25 28.6 37.1C28.42 36.83 28.42 36.83 28.72 36.83C29.26 36.83 30.74 36.42 31.52 36.05C32.38 35.66 32.58 35.47 32.13 35.47C31.67 35.47 30.6 35.12 29.2 34.53C27.88 33.99 27.24 33.77 26.53 33.64L26.14 33.58L26.35 33.29C26.55 33 26.55 32.98 26.38 32.91C26.28 32.87 25.71 32.82 25.1 32.78C24.15 32.75 23.91 32.77 23.31 32.99Z" fill="#60C880" fill-opacity="1.000000" fill-rule="evenodd"/>
	<path id="Vector" d="M46.56 4.33C46.6 4.65 46.68 5.5 46.72 6.22C46.81 7.5 47.1 8.87 47.25 8.77C47.42 8.67 47.81 7.06 47.82 6.46C47.82 5.94 47.74 5.69 47.48 5.16C47.29 4.79 47 4.32 46.82 4.12L46.5 3.76L46.56 4.33Z" fill="#FFFFFF" fill-opacity="1.000000" fill-rule="nonzero"/>
	<path id="Vector" d="M51.13 9.4C51.12 9.65 51.2 9.96 51.35 10.18C51.66 10.71 51.69 10.42 51.39 9.65L51.13 8.98L51.13 9.4Z" fill="#FFFFFF" fill-opacity="1.000000" fill-rule="nonzero"/>
	<path id="Vector" d="M54.54 9.89C54.76 10.26 55.22 11.16 55.56 11.91C56.2 13.3 56.76 14.05 57.26 14.18C57.47 14.23 57.49 14.2 57.49 13.88C57.49 13.25 57.17 11.94 56.86 11.32C56.5 10.61 55.8 9.98 54.92 9.56C54.57 9.38 54.25 9.24 54.22 9.24C54.19 9.24 54.34 9.54 54.54 9.89Z" fill="#FFFFFF" fill-opacity="1.000000" fill-rule="nonzero"/>
	<path id="Vector" d="M53.58 15.04C53.96 16.43 54.25 17.12 54.51 17.22C54.64 17.27 54.67 17.17 54.67 16.63C54.67 15.71 54.43 14.98 53.91 14.34C53.67 14.05 53.42 13.79 53.35 13.77C53.29 13.75 53.39 14.29 53.58 15.04Z" fill="#FFFFFF" fill-opacity="1.000000" fill-rule="nonzero"/>
	<path id="Vector" d="M59.17 16.07C59.04 16.47 58.72 17.31 58.48 17.92C57.78 19.62 57.6 20.34 57.6 21.26C57.6 22.04 57.77 23.15 57.9 23.13C58 23.12 59.69 19.57 59.85 19.02C60.06 18.28 60.04 17.03 59.79 16.23C59.48 15.23 59.45 15.22 59.17 16.07Z" fill="#FFFFFF" fill-opacity="1.000000" fill-rule="nonzero"/>
	<path id="Vector" d="M55.09 20.39C55.09 20.67 54.97 21.95 54.83 23.23C54.51 26.09 54.5 26.78 54.78 27.66C54.95 28.22 55.69 29.46 55.8 29.37C55.87 29.29 56.44 26.46 56.5 25.86C56.58 25.08 56.43 23.83 56.12 22.65C55.8 21.41 55.29 19.9 55.18 19.9C55.13 19.9 55.09 20.12 55.09 20.39Z" fill="#FFFFFF" fill-opacity="1.000000" fill-rule="nonzero"/>
	<path id="Vector" d="M56.66 31.29C55.98 32.23 55.68 32.84 55.74 33.2C55.79 33.52 56.69 32.66 57.01 31.99C57.23 31.53 57.49 30.35 57.38 30.35C57.36 30.35 57.03 30.78 56.66 31.29Z" fill="#FFFFFF" fill-opacity="1.000000" fill-rule="nonzero"/>
	<path id="Vector" d="M55.73 35.61C55.59 35.85 55.13 36.53 54.7 37.11C53.8 38.35 53.46 39.05 53.35 39.85C53.27 40.49 53.21 40.49 54.16 39.85C55.5 38.95 56.03 37.96 56.11 36.22C56.13 35.64 56.11 35.16 56.07 35.16C56.02 35.16 55.86 35.35 55.73 35.61Z" fill="#FFFFFF" fill-opacity="1.000000" fill-rule="nonzero"/>
</svg>
