<svg width="22.977539" height="10.566162" viewBox="0 0 22.9775 10.5662" fill="none" xmlns="http://www.w3.org/2000/svg" xmlns:xlink="http://www.w3.org/1999/xlink">
	<desc>
			Created with Pixso.
	</desc>
	<defs/>
	<path id="RU" d="M7.07 10.56L10.18 10.56L6.96 7.25C8.21 7.15 9.07 6.84 9.53 6.3C10.01 5.76 10.25 4.93 10.25 3.83L10.25 3.45Q10.25 1.6 9.41 0.81C8.84 0.27 7.78 9.91e-5 6.2 9.91e-5L-0.01 9.91e-5L-0.01 10.56L2.24 10.56L2.24 7.27L3.95 7.27L7.07 10.56ZM22.97 9.91e-5L20.72 9.91e-5L20.72 6.85Q20.72 7.86 20.33 8.24C20.06 8.49 19.59 8.62 18.9 8.62L16.46 8.62Q15.43 8.62 15.03 8.24C14.78 7.99 14.66 7.53 14.66 6.85L14.66 9.91e-5L12.41 9.91e-5L12.41 6.8Q12.41 8.87 13.23 9.72C13.8 10.28 14.87 10.56 16.46 10.56L18.9 10.56Q21.3 10.56 22.13 9.72C22.69 9.15 22.97 8.18 22.97 6.8L22.97 9.91e-5ZM2.24 1.94L6.2 1.94Q7.25 1.94 7.63 2.25C7.88 2.44 8 2.83 8 3.42L8 3.87Q8 4.77 7.63 5.05C7.37 5.25 6.9 5.34 6.2 5.34L2.24 5.34L2.24 1.94Z" fill="#FFFFFF" fill-opacity="1.000000" fill-rule="evenodd"/>
</svg>
