<svg width="45.000000" height="40.000000" viewBox="0 0 45 40" fill="none" xmlns="http://www.w3.org/2000/svg" xmlns:xlink="http://www.w3.org/1999/xlink">
	<desc>
			Created with Pixso.
	</desc>
	<defs/>
	<path id="Vector" d="M15.57 0.04C13 0.22 11.46 0.61 9.6 1.54C5.71 3.5 2.36 7.85 0.92 12.84C-0.04 16.15 -0.26 19.99 0.3 23.39C1.12 28.36 3.52 33 6.73 35.83C9.33 38.11 12.23 39.33 16.25 39.85C17.81 40.05 23.21 40.04 24.69 39.85C25.26 39.77 25.87 39.65 26.05 39.59C26.22 39.53 26.4 39.5 26.46 39.53C26.5 39.56 26.5 39.53 26.43 39.46C26.34 39.34 26.35 39.32 26.47 39.31C26.58 39.31 26.59 39.3 26.51 39.27C26.45 39.24 26.86 39.07 27.41 38.89C31.74 37.49 34.94 35.1 37.14 31.6C37.37 31.23 37.53 30.92 37.49 30.9C37.27 30.83 35.63 31.57 34.97 32.04C34.82 32.14 34.79 32.15 34.85 32.06C35.08 31.68 36.1 30.27 36.6 29.64C37.23 28.85 38.78 27.22 38.9 27.22C38.94 27.22 39.01 27.33 39.06 27.47L39.15 27.72L39.25 27.33C39.85 25.02 40.06 23.51 40.12 21.05C40.14 19.94 40.12 18.98 40.08 18.87C40.01 18.7 40.01 18.7 39.66 19.01C39.25 19.36 38.41 20.41 38.09 20.95C37.83 21.4 37.82 21.33 38.03 20.18C38.24 19.03 38.51 17.96 38.86 16.92C39.25 15.78 39.22 15.81 39.47 16.27C39.6 16.49 39.71 16.66 39.72 16.65C39.75 16.62 39.46 15.5 39.18 14.6C38.56 12.56 37.45 10.21 36.36 8.61C36.2 8.36 36.03 8.08 35.99 7.99C35.94 7.84 35.89 7.91 35.72 8.46C35.6 8.83 35.46 9.39 35.41 9.71C35.35 10.04 35.28 10.25 35.26 10.19C34.86 9.03 34.46 7.93 34.01 6.79C33.48 5.42 33.45 5.37 32.98 4.91C31.95 3.9 30.02 2.64 28.48 1.95C26.48 1.07 23.85 0.44 20.94 0.15C19.42 0 16.81 -0.05 15.57 0.04ZM16.72 3.46C18.73 3.93 20.41 4.78 22.07 6.19C23.18 7.14 24.55 8.82 25.33 10.21C25.66 10.8 25.57 10.79 25.21 10.19C24.44 8.92 23.03 7.39 21.81 6.48C21.05 5.91 19.65 5.16 18.7 4.82C16.61 4.04 14.15 3.98 12.04 4.64C10.24 5.21 8.64 6.21 7.15 7.69C4.86 9.97 3.43 12.83 2.78 16.44C2.6 17.45 2.58 17.78 2.57 19.48C2.56 21.63 2.66 22.44 3.11 24.21C3.76 26.7 4.94 29 6.51 30.79C8.28 32.79 10.42 34.05 13.03 34.61C14.03 34.82 16.32 34.81 17.35 34.58C19.4 34.12 21.09 33.25 22.82 31.77L23.41 31.26L22.74 31.89C21.07 33.5 18.92 34.62 16.6 35.12C15.46 35.36 13.33 35.36 12.19 35.12C8.46 34.32 5.34 31.83 3.36 28.07C1.04 23.67 0.66 18.12 2.34 13.21C3.23 10.61 4.53 8.56 6.44 6.73C8.44 4.82 10.75 3.68 13.46 3.29C14.02 3.2 16.06 3.32 16.72 3.46ZM22.56 4.09C23.06 4.28 23.38 4.33 24.23 4.39C24.87 4.43 25.38 4.51 25.49 4.57C25.66 4.67 25.54 4.69 24.36 4.74L23.03 4.79L22.45 4.33C22.12 4.07 21.88 3.86 21.9 3.86C21.93 3.86 22.23 3.96 22.56 4.09ZM25.41 5.71C25.58 5.83 26.26 6.31 26.91 6.76C27.56 7.21 28.19 7.7 28.3 7.85C28.42 8 28.46 8.09 28.38 8.06C25.48 6.82 25.74 6.96 25.05 6.25C24.59 5.78 24.34 5.59 24.11 5.52C23.82 5.44 23.85 5.43 24.44 5.46C25.01 5.47 25.12 5.5 25.41 5.71ZM31.69 8.1C33.72 10.79 34.95 13.85 35.52 17.62C35.66 18.53 35.7 19.09 35.7 20.62C35.7 22.65 35.63 23.42 35.28 25.19C34.5 29.06 32.92 32.15 30.3 34.91C29.81 35.42 29.82 35.42 30.45 34.64C33.03 31.51 34.48 28.28 35.13 24.21C35.34 22.84 35.43 19.89 35.28 18.49C34.79 13.67 33.09 9.75 29.89 6.13L29.23 5.39L30.13 6.3C30.63 6.8 31.33 7.6 31.69 8.1ZM17.41 5.92C20.77 6.79 23.42 9.06 25.09 12.49C27.4 17.24 27.23 23.04 24.65 27.52C24.02 28.61 23.46 29.33 22.52 30.26C20.93 31.83 19.15 32.79 17.04 33.21C16.21 33.37 14.42 33.39 13.57 33.24C12.95 33.13 11.54 32.71 11.54 32.63C11.54 32.61 11.76 32.36 12.03 32.07C13.57 30.43 14.54 28.6 15.1 26.23C15.51 24.55 15.65 22.1 15.45 20.36C15.34 19.45 15.23 19.17 15.22 19.81C15.22 20.44 15.02 21.91 14.78 23.03C14.41 24.79 13.6 26.9 12.85 28.06C12.09 29.22 10.84 30.32 9.58 30.92L9.01 31.19L8.56 30.8C8.32 30.59 7.87 30.13 7.57 29.79C4.12 25.76 3.02 19.7 4.8 14.39C6.33 9.82 9.75 6.53 13.75 5.77C14.66 5.6 16.48 5.67 17.41 5.92ZM27.59 8.33L28.4 8.66L29.22 9.65C31.27 12.12 31.83 12.95 31.96 13.66L32 13.98L31.75 13.74C31.43 13.45 29.75 12.12 28.95 11.53C28.56 11.23 28.28 10.95 28.04 10.59C27.85 10.31 27.39 9.6 27.01 9.02C26.62 8.44 26.28 7.92 26.25 7.86C26.2 7.79 26.26 7.79 26.48 7.89C26.65 7.96 27.15 8.16 27.59 8.33ZM25.71 10.93C25.68 10.95 25.63 10.92 25.61 10.84C25.56 10.73 25.57 10.72 25.65 10.79C25.71 10.85 25.73 10.91 25.71 10.93ZM25.86 11.24C25.84 11.27 25.79 11.23 25.77 11.15C25.72 11.04 25.73 11.03 25.81 11.1C25.86 11.16 25.88 11.22 25.86 11.24ZM29.66 12.98C30.18 13.4 30.82 13.95 31.1 14.21L31.59 14.68L32.22 16.46C32.93 18.45 33 18.73 33.01 19.29L33.01 19.68L32.76 19.29C32.37 18.67 31.64 17.8 30.65 16.79L29.73 15.85L29.44 14.45C29.15 12.99 29.11 12.89 28.8 12.47C28.7 12.34 28.64 12.22 28.67 12.22C28.69 12.22 29.14 12.56 29.66 12.98ZM31.18 18.77C31.41 19.05 31.61 19.39 31.64 19.52C31.65 19.65 31.71 20.48 31.75 21.34C31.83 22.76 31.86 22.99 32.04 23.44L32.24 23.94L32.07 25.07L31.89 26.2L31.6 25.47C31.29 24.7 30.8 23.74 30.4 23.17L30.17 22.83L30.23 20.67C30.28 18.39 30.28 18.41 29.91 17.41C29.85 17.23 30.58 18.02 31.18 18.77ZM30.7 26.04C30.81 26.26 30.89 26.5 30.89 26.54C30.89 26.59 30.77 27.07 30.6 27.59L30.31 28.56L30.48 29.06C30.64 29.55 30.64 29.58 30.52 30.11C30.45 30.41 30.36 30.65 30.34 30.65C30.31 30.65 30.23 30.5 30.14 30.32C30.06 30.14 29.79 29.68 29.54 29.3L29.07 28.61L29.51 27.06C29.76 26.21 29.95 25.41 29.95 25.29C29.95 25.17 29.9 24.87 29.83 24.64C29.77 24.4 29.72 24.19 29.72 24.17C29.72 24.11 30.5 25.58 30.7 26.04ZM28.68 30.61C29.25 31.44 29.29 31.5 28.94 31.12C28.72 30.89 28.53 30.72 28.52 30.73C28.5 30.75 28.05 31.32 27.51 31.98C26.21 33.57 26.28 33.46 26.52 33.78C26.75 34.1 27.11 34.71 27 34.6C26.87 34.46 26.19 33.52 26.19 33.46C26.19 33.39 27.23 31.75 27.84 30.82L28.23 30.26L28.03 29.81C27.93 29.57 27.88 29.43 27.94 29.51C27.99 29.59 28.32 30.08 28.68 30.61ZM25.6 35.04C25.84 35.34 26 35.57 25.96 35.57C25.92 35.57 25.78 35.45 25.66 35.29L25.43 35.02L24.22 35.93C23.56 36.43 23 36.85 22.99 36.87C22.97 36.89 23.1 37.11 23.28 37.38C23.46 37.64 23.6 37.89 23.6 37.94C23.6 37.99 23.5 37.87 23.38 37.67C23.26 37.49 23.06 37.24 22.95 37.14C22.84 37.03 22.74 36.92 22.74 36.89C22.74 36.86 23.26 36.37 23.9 35.8C24.83 34.96 25.05 34.72 25.04 34.57C25.03 34.46 25.05 34.41 25.09 34.45C25.12 34.49 25.35 34.75 25.6 35.04ZM22.12 38.3C22.34 38.52 22.16 38.44 21.9 38.21L21.73 38.06L21.32 38.3L20.9 38.55L21.23 38.25L21.56 37.96L21.44 37.68C21.32 37.41 21.32 37.41 21.62 37.76C21.79 37.96 22.01 38.2 22.12 38.3Z" fill="#3D3D3D" fill-opacity="1.000000" fill-rule="nonzero"/>
	<mask id="mask1516_1225" mask-type="alpha" maskUnits="userSpaceOnUse" x="0.000000" y="0.000000" width="40.131836" height="40.000000">
		<path id="Vector" d="M15.57 0.04C13 0.22 11.46 0.61 9.6 1.54C5.71 3.5 2.36 7.85 0.92 12.84C-0.04 16.15 -0.26 19.99 0.3 23.39C1.12 28.36 3.52 33 6.73 35.83C9.33 38.11 12.23 39.33 16.25 39.85C17.81 40.05 23.21 40.04 24.69 39.85C25.26 39.77 25.87 39.65 26.05 39.59C26.22 39.53 26.4 39.5 26.46 39.53C26.5 39.56 26.5 39.53 26.43 39.46C26.34 39.34 26.35 39.32 26.47 39.31C26.58 39.31 26.59 39.3 26.51 39.27C26.45 39.24 26.86 39.07 27.41 38.89C31.74 37.49 34.94 35.1 37.14 31.6C37.37 31.23 37.53 30.92 37.49 30.9C37.27 30.83 35.63 31.57 34.97 32.04C34.82 32.14 34.79 32.15 34.85 32.06C35.08 31.68 36.1 30.27 36.6 29.64C37.23 28.85 38.78 27.22 38.9 27.22C38.94 27.22 39.01 27.33 39.06 27.47L39.15 27.72L39.25 27.33C39.85 25.02 40.06 23.51 40.12 21.05C40.14 19.94 40.12 18.98 40.08 18.87C40.01 18.7 40.01 18.7 39.66 19.01C39.25 19.36 38.41 20.41 38.09 20.95C37.83 21.4 37.82 21.33 38.03 20.18C38.24 19.03 38.51 17.96 38.86 16.92C39.25 15.78 39.22 15.81 39.47 16.27C39.6 16.49 39.71 16.66 39.72 16.65C39.75 16.62 39.46 15.5 39.18 14.6C38.56 12.56 37.45 10.21 36.36 8.61C36.2 8.36 36.03 8.08 35.99 7.99C35.94 7.84 35.89 7.91 35.72 8.46C35.6 8.83 35.46 9.39 35.41 9.71C35.35 10.04 35.28 10.25 35.26 10.19C34.86 9.03 34.46 7.93 34.01 6.79C33.48 5.42 33.45 5.37 32.98 4.91C31.95 3.9 30.02 2.64 28.48 1.95C26.48 1.07 23.85 0.44 20.94 0.15C19.42 0 16.81 -0.05 15.57 0.04ZM16.72 3.46C18.73 3.93 20.41 4.78 22.07 6.19C23.18 7.14 24.55 8.82 25.33 10.21C25.66 10.8 25.57 10.79 25.21 10.19C24.44 8.92 23.03 7.39 21.81 6.48C21.05 5.91 19.65 5.16 18.7 4.82C16.61 4.04 14.15 3.98 12.04 4.64C10.24 5.21 8.64 6.21 7.15 7.69C4.86 9.97 3.43 12.83 2.78 16.44C2.6 17.45 2.58 17.78 2.57 19.48C2.56 21.63 2.66 22.44 3.11 24.21C3.76 26.7 4.94 29 6.51 30.79C8.28 32.79 10.42 34.05 13.03 34.61C14.03 34.82 16.32 34.81 17.35 34.58C19.4 34.12 21.09 33.25 22.82 31.77L23.41 31.26L22.74 31.89C21.07 33.5 18.92 34.62 16.6 35.12C15.46 35.36 13.33 35.36 12.19 35.12C8.46 34.32 5.34 31.83 3.36 28.07C1.04 23.67 0.66 18.12 2.34 13.21C3.23 10.61 4.53 8.56 6.44 6.73C8.44 4.82 10.75 3.68 13.46 3.29C14.02 3.2 16.06 3.32 16.72 3.46ZM22.56 4.09C23.06 4.28 23.38 4.33 24.23 4.39C24.87 4.43 25.38 4.51 25.49 4.57C25.66 4.67 25.54 4.69 24.36 4.74L23.03 4.79L22.45 4.33C22.12 4.07 21.88 3.86 21.9 3.86C21.93 3.86 22.23 3.96 22.56 4.09ZM25.41 5.71C25.58 5.83 26.26 6.31 26.91 6.76C27.56 7.21 28.19 7.7 28.3 7.85C28.42 8 28.46 8.09 28.38 8.06C25.48 6.82 25.74 6.96 25.05 6.25C24.59 5.78 24.34 5.59 24.11 5.52C23.82 5.44 23.85 5.43 24.44 5.46C25.01 5.47 25.12 5.5 25.41 5.71ZM31.69 8.1C33.72 10.79 34.95 13.85 35.52 17.62C35.66 18.53 35.7 19.09 35.7 20.62C35.7 22.65 35.63 23.42 35.28 25.19C34.5 29.06 32.92 32.15 30.3 34.91C29.81 35.42 29.82 35.42 30.45 34.64C33.03 31.51 34.48 28.28 35.13 24.21C35.34 22.84 35.43 19.89 35.28 18.49C34.79 13.67 33.09 9.75 29.89 6.13L29.23 5.39L30.13 6.3C30.63 6.8 31.33 7.6 31.69 8.1ZM17.41 5.92C20.77 6.79 23.42 9.06 25.09 12.49C27.4 17.24 27.23 23.04 24.65 27.52C24.02 28.61 23.46 29.33 22.52 30.26C20.93 31.83 19.15 32.79 17.04 33.21C16.21 33.37 14.42 33.39 13.57 33.24C12.95 33.13 11.54 32.71 11.54 32.63C11.54 32.61 11.76 32.36 12.03 32.07C13.57 30.43 14.54 28.6 15.1 26.23C15.51 24.55 15.65 22.1 15.45 20.36C15.34 19.45 15.23 19.17 15.22 19.81C15.22 20.44 15.02 21.91 14.78 23.03C14.41 24.79 13.6 26.9 12.85 28.06C12.09 29.22 10.84 30.32 9.58 30.92L9.01 31.19L8.56 30.8C8.32 30.59 7.87 30.13 7.57 29.79C4.12 25.76 3.02 19.7 4.8 14.39C6.33 9.82 9.75 6.53 13.75 5.77C14.66 5.6 16.48 5.67 17.41 5.92ZM27.59 8.33L28.4 8.66L29.22 9.65C31.27 12.12 31.83 12.95 31.96 13.66L32 13.98L31.75 13.74C31.43 13.45 29.75 12.12 28.95 11.53C28.56 11.23 28.28 10.95 28.04 10.59C27.85 10.31 27.39 9.6 27.01 9.02C26.62 8.44 26.28 7.92 26.25 7.86C26.2 7.79 26.26 7.79 26.48 7.89C26.65 7.96 27.15 8.16 27.59 8.33ZM25.71 10.93C25.68 10.95 25.63 10.92 25.61 10.84C25.56 10.73 25.57 10.72 25.65 10.79C25.71 10.85 25.73 10.91 25.71 10.93ZM25.86 11.24C25.84 11.27 25.79 11.23 25.77 11.15C25.72 11.04 25.73 11.03 25.81 11.1C25.86 11.16 25.88 11.22 25.86 11.24ZM29.66 12.98C30.18 13.4 30.82 13.95 31.1 14.21L31.59 14.68L32.22 16.46C32.93 18.45 33 18.73 33.01 19.29L33.01 19.68L32.76 19.29C32.37 18.67 31.64 17.8 30.65 16.79L29.73 15.85L29.44 14.45C29.15 12.99 29.11 12.89 28.8 12.47C28.7 12.34 28.64 12.22 28.67 12.22C28.69 12.22 29.14 12.56 29.66 12.98ZM31.18 18.77C31.41 19.05 31.61 19.39 31.64 19.52C31.65 19.65 31.71 20.48 31.75 21.34C31.83 22.76 31.86 22.99 32.04 23.44L32.24 23.94L32.07 25.07L31.89 26.2L31.6 25.47C31.29 24.7 30.8 23.74 30.4 23.17L30.17 22.83L30.23 20.67C30.28 18.39 30.28 18.41 29.91 17.41C29.85 17.23 30.58 18.02 31.18 18.77ZM30.7 26.04C30.81 26.26 30.89 26.5 30.89 26.54C30.89 26.59 30.77 27.07 30.6 27.59L30.31 28.56L30.48 29.06C30.64 29.55 30.64 29.58 30.52 30.11C30.45 30.41 30.36 30.65 30.34 30.65C30.31 30.65 30.23 30.5 30.14 30.32C30.06 30.14 29.79 29.68 29.54 29.3L29.07 28.61L29.51 27.06C29.76 26.21 29.95 25.41 29.95 25.29C29.95 25.17 29.9 24.87 29.83 24.64C29.77 24.4 29.72 24.19 29.72 24.17C29.72 24.11 30.5 25.58 30.7 26.04ZM28.68 30.61C29.25 31.44 29.29 31.5 28.94 31.12C28.72 30.89 28.53 30.72 28.52 30.73C28.5 30.75 28.05 31.32 27.51 31.98C26.21 33.57 26.28 33.46 26.52 33.78C26.75 34.1 27.11 34.71 27 34.6C26.87 34.46 26.19 33.52 26.19 33.46C26.19 33.39 27.23 31.75 27.84 30.82L28.23 30.26L28.03 29.81C27.93 29.57 27.88 29.43 27.94 29.51C27.99 29.59 28.32 30.08 28.68 30.61ZM25.6 35.04C25.84 35.34 26 35.57 25.96 35.57C25.92 35.57 25.78 35.45 25.66 35.29L25.43 35.02L24.22 35.93C23.56 36.43 23 36.85 22.99 36.87C22.97 36.89 23.1 37.11 23.28 37.38C23.46 37.64 23.6 37.89 23.6 37.94C23.6 37.99 23.5 37.87 23.38 37.67C23.26 37.49 23.06 37.24 22.95 37.14C22.84 37.03 22.74 36.92 22.74 36.89C22.74 36.86 23.26 36.37 23.9 35.8C24.83 34.96 25.05 34.72 25.04 34.57C25.03 34.46 25.05 34.41 25.09 34.45C25.12 34.49 25.35 34.75 25.6 35.04ZM22.12 38.3C22.34 38.52 22.16 38.44 21.9 38.21L21.73 38.06L21.32 38.3L20.9 38.55L21.23 38.25L21.56 37.96L21.44 37.68C21.32 37.41 21.32 37.41 21.62 37.76C21.79 37.96 22.01 38.2 22.12 38.3Z" fill="#000000" fill-opacity="1.000000" fill-rule="nonzero"/>
	</mask>
	<g mask="url(#mask1516_1225)">
		<ellipse id="Ellipse 82" cx="13.136719" cy="25.809326" rx="6.375000" ry="7.101476" fill="#60C880" fill-opacity="1.000000"/>
	</g>
	<path id="Vector" d="M14.98 6.96C13.96 8.06 13.22 9.76 13.06 11.45C13.01 11.91 12.99 11.99 12.92 11.88C12.87 11.81 12.64 11.45 12.41 11.1L11.99 10.46L12.03 11.71C12.06 12.77 12.11 13.1 12.3 13.88C12.57 14.89 13.06 16 13.62 16.84C13.97 17.35 15.17 18.7 15.29 18.7C15.32 18.7 15.25 18.19 15.13 17.55C14.8 15.81 14.67 14.36 14.67 12.63C14.67 10.88 14.8 9.52 15.15 7.82C15.27 7.17 15.37 6.64 15.35 6.62C15.34 6.6 15.16 6.76 14.98 6.96Z" fill="#60C880" fill-opacity="1.000000" fill-rule="evenodd"/>
	<path id="Vector" d="M16.9 12.32C16.89 13.78 16.78 14.62 16.39 16.13C16.27 16.63 16.14 17.11 16.11 17.19C16.02 17.5 16.33 17.03 16.59 16.48C17.08 15.45 17.29 13.7 17.11 12.17C16.96 10.88 16.9 10.91 16.9 12.32Z" fill="#60C880" fill-opacity="1.000000" fill-rule="evenodd"/>
	<path id="Vector" d="M23.07 14.97C22.8 15.4 21.73 16.39 20.86 17.01C20.05 17.6 19.93 17.63 19.92 17.27C19.92 17.12 19.54 16.2 19.48 16.2C19.39 16.2 17.68 18.2 17.15 18.92C16.73 19.51 16.57 19.91 16.33 21.14C16.2 21.76 16.11 22.26 16.12 22.28C16.13 22.29 16.34 22.11 16.58 21.87C18.05 20.44 19.27 19.48 21.36 18.12C22.1 17.64 22.81 17.12 22.95 16.97C23.32 16.54 23.47 16.07 23.43 15.43C23.39 14.74 23.29 14.61 23.07 14.97Z" fill="#60C880" fill-opacity="1.000000" fill-rule="evenodd"/>
	<path id="Vector" d="M5.62 15.03C6.04 16.43 7.33 18.73 8.39 19.99L8.79 20.46L8.43 20.52C8.25 20.55 7.93 20.6 7.73 20.63L7.38 20.69L8.07 21.44C9.27 22.75 10.5 23.73 11.71 24.33C12.24 24.6 13.48 25.03 13.72 25.03C13.95 25.03 13.94 24.96 13.58 24.26C12.94 22.99 11.4 20.87 9.89 19.15C8.32 17.37 5.5 14.65 5.62 15.03Z" fill="#60C880" fill-opacity="1.000000" fill-rule="evenodd"/>
	<path id="Vector" d="M8.56 15.05C8.62 15.11 8.97 15.4 9.32 15.68C11.47 17.45 13.14 19.98 13.58 22.14C13.62 22.37 13.71 23.02 13.77 23.58C13.83 24.12 13.9 24.59 13.91 24.62C14.01 24.7 14.16 23.43 14.16 22.65C14.16 21.92 14.13 21.69 13.94 21.12C13.23 18.96 11.33 16.73 8.91 15.23C8.65 15.06 8.5 14.99 8.56 15.05Z" fill="#60C880" fill-opacity="1.000000" fill-rule="evenodd"/>
	<path id="Vector" d="M23.21 18.6C21.98 19.64 20.23 20.62 17.67 21.68C17.01 21.95 16.47 22.19 16.47 22.23C16.47 22.33 17.79 22.48 18.4 22.44C18.92 22.4 19.11 22.35 19.61 22.1C21.19 21.3 22.57 20.04 23.56 18.48C23.67 18.3 23.75 18.16 23.75 18.16C23.73 18.16 23.5 18.36 23.21 18.6Z" fill="#60C880" fill-opacity="1.000000" fill-rule="evenodd"/>
	<path id="Vector" d="M7.1 24.37C6.21 24.52 6.18 24.56 6.81 24.93C7.1 25.1 7.53 25.34 7.76 25.45C8.15 25.65 8.17 25.67 8.03 25.77C7.91 25.87 7.95 25.91 8.61 26.22L9.33 26.56L8.79 26.98C8.5 27.22 8.25 27.43 8.25 27.46C8.25 27.52 9.33 28.01 9.89 28.2C10.24 28.32 10.55 28.35 11.43 28.35C12.05 28.35 12.57 28.32 12.6 28.29C12.71 28.18 10.86 26.46 9.7 25.59C9.41 25.37 9.19 25.19 9.22 25.19C9.26 25.19 9.61 25.34 10 25.54C10.76 25.91 11.7 26.58 12.34 27.19L12.74 27.57L12.69 27.14C12.58 26.24 11.85 25.23 10.88 24.65C10.63 24.5 10.42 24.4 10.4 24.41C10.38 24.44 10.63 24.65 10.96 24.91C11.55 25.38 12.14 26.1 12.36 26.61C12.55 27.09 12.49 27.09 12 26.64C11.49 26.17 10.63 25.56 10.05 25.26C9.85 25.16 9.35 24.97 8.93 24.83C8.13 24.57 8.09 24.48 8.78 24.48C9.38 24.48 10.06 24.62 10.46 24.83C10.83 25.02 10.95 25 10.7 24.78C10.2 24.34 8.38 24.13 7.1 24.37Z" fill="#60C880" fill-opacity="1.000000" fill-rule="evenodd"/>
	<path id="Vector" d="M17.49 24.66C16.83 24.88 16.4 25.18 15.93 25.72C15.61 26.08 15.06 26.93 15.06 27.08C15.06 27.1 15.53 26.97 16.08 26.78C16.65 26.59 17.46 26.36 17.9 26.28C18.62 26.13 20.31 25.94 20.37 26C20.38 26.01 20.02 26.09 19.58 26.19C18.58 26.4 17.32 26.81 16.33 27.25C15.55 27.59 14.91 27.96 14.91 28.06C14.91 28.26 16.38 29.01 17.18 29.22C17.72 29.36 19.22 29.39 19.62 29.27L19.84 29.21L19.41 28.67C19.18 28.37 18.98 28.12 18.98 28.11C18.98 28.1 19.24 28.11 19.55 28.13C20.03 28.17 21.47 28.04 21.55 27.96C21.57 27.94 21.52 27.84 21.45 27.73C21.32 27.53 21.32 27.53 21.54 27.53C21.94 27.53 23.06 27.22 23.64 26.95C24.29 26.65 24.44 26.51 24.1 26.51C23.75 26.51 22.95 26.26 21.9 25.81C20.91 25.4 20.43 25.24 19.9 25.15L19.6 25.1L19.77 24.88C19.91 24.67 19.91 24.65 19.78 24.6C19.71 24.57 19.28 24.53 18.83 24.51C18.11 24.48 17.93 24.5 17.49 24.66Z" fill="#60C880" fill-opacity="1.000000" fill-rule="evenodd"/>
	<path id="Vector" d="M34.92 3.24C34.95 3.47 35.01 4.11 35.04 4.65C35.11 5.6 35.32 6.63 35.44 6.56C35.56 6.48 35.85 5.28 35.86 4.83C35.86 4.44 35.81 4.25 35.61 3.86C35.47 3.58 35.25 3.23 35.12 3.08L34.87 2.81L34.92 3.24Z" fill="#3D3D3D" fill-opacity="1.000000" fill-rule="nonzero"/>
	<path id="Vector" d="M38.35 7.03C38.34 7.21 38.4 7.45 38.51 7.61C38.75 8 38.77 7.79 38.54 7.21L38.35 6.71L38.35 7.03Z" fill="#3D3D3D" fill-opacity="1.000000" fill-rule="nonzero"/>
	<path id="Vector" d="M40.91 7.39C41.07 7.67 41.42 8.34 41.67 8.9C42.15 9.94 42.57 10.5 42.94 10.6C43.1 10.63 43.12 10.61 43.12 10.38C43.12 9.9 42.87 8.92 42.65 8.46C42.37 7.93 41.85 7.46 41.19 7.14C40.92 7.01 40.69 6.91 40.66 6.91C40.64 6.91 40.75 7.13 40.91 7.39Z" fill="#3D3D3D" fill-opacity="1.000000" fill-rule="nonzero"/>
	<path id="Vector" d="M40.19 11.24C40.47 12.28 40.69 12.8 40.88 12.87C40.98 12.91 41 12.84 41 12.43C41 11.74 40.82 11.2 40.43 10.72C40.25 10.5 40.06 10.31 40.01 10.29C39.97 10.28 40.04 10.68 40.19 11.24Z" fill="#3D3D3D" fill-opacity="1.000000" fill-rule="nonzero"/>
	<path id="Vector" d="M44.38 12.01C44.28 12.31 44.04 12.94 43.86 13.39C43.34 14.66 43.2 15.2 43.2 15.89C43.2 16.48 43.33 17.3 43.42 17.29C43.5 17.28 44.76 14.63 44.89 14.22C45.04 13.67 45.03 12.73 44.84 12.13C44.61 11.38 44.58 11.38 44.38 12.01Z" fill="#3D3D3D" fill-opacity="1.000000" fill-rule="nonzero"/>
	<path id="Vector" d="M41.32 15.24C41.32 15.45 41.23 16.41 41.12 17.37C40.88 19.5 40.88 20.02 41.08 20.68C41.21 21.09 41.77 22.02 41.85 21.95C41.9 21.9 42.33 19.78 42.37 19.33C42.44 18.75 42.32 17.81 42.09 16.93C41.85 16 41.46 14.88 41.39 14.88C41.35 14.88 41.32 15.04 41.32 15.24Z" fill="#3D3D3D" fill-opacity="1.000000" fill-rule="nonzero"/>
	<path id="Vector" d="M42.49 23.39C41.98 24.09 41.76 24.55 41.8 24.82C41.84 25.05 42.52 24.41 42.76 23.91C42.92 23.57 43.12 22.69 43.03 22.69C43.02 22.69 42.77 23.01 42.49 23.39Z" fill="#3D3D3D" fill-opacity="1.000000" fill-rule="nonzero"/>
	<path id="Vector" d="M41.79 26.61C41.69 26.79 41.35 27.3 41.03 27.74C40.35 28.67 40.09 29.19 40.01 29.79C39.95 30.26 39.91 30.26 40.62 29.79C41.62 29.11 42.02 28.37 42.08 27.08C42.1 26.64 42.08 26.28 42.05 26.28C42.01 26.28 41.9 26.43 41.79 26.61Z" fill="#3D3D3D" fill-opacity="1.000000" fill-rule="nonzero"/>
</svg>
