<svg width="22.000000" height="22.000000" viewBox="0 0 22 22" fill="none" xmlns="http://www.w3.org/2000/svg" xmlns:xlink="http://www.w3.org/1999/xlink">
	<desc>
			Created with Pixso.
	</desc>
	<defs/>
	<path id="search" d="M9.77832 0C15.1777 0 19.5557 4.37769 19.5557 9.77783C19.5557 12.0374 18.7891 14.1179 17.502 15.7737L22 20.2715L20.2715 22L15.7734 17.5022C14.1182 18.7891 12.0371 19.5557 9.77832 19.5557C4.37793 19.5557 0 15.178 0 9.77783C0 4.37769 4.37793 0 9.77832 0ZM14.5312 15.9346C13.2168 16.9509 11.5684 17.5557 9.77832 17.5557C5.48242 17.5557 2 14.0732 2 9.77783C2 5.48218 5.48242 2 9.77832 2C14.0732 2 17.5557 5.48218 17.5557 9.77783C17.5557 11.5679 16.9512 13.2166 15.9346 14.531L14.5312 15.9346Z" clip-rule="evenodd" fill="#FFFFFF" fill-opacity="1.000000" fill-rule="evenodd"/>
</svg>
