<svg width="18.000000" height="18.000000" viewBox="0 0 18 18" fill="none" xmlns="http://www.w3.org/2000/svg" xmlns:xlink="http://www.w3.org/1999/xlink">
	<desc>
			Created with Pixso.
	</desc>
	<defs/>
	<path id="search" d="M8 0C12.418 0 16 3.58179 16 8C16 9.84863 15.373 11.551 14.3203 12.9058L18 16.5857L16.5859 18L12.9053 14.3198C11.5508 15.373 9.84863 16 8 16C3.58203 16 0 12.4182 0 8C0 3.58179 3.58203 0 8 0ZM8 2C11.3135 2 14 4.68628 14 8C14 11.3137 11.3135 14 8 14C4.68652 14 2 11.3137 2 8C2 4.68628 4.68652 2 8 2Z" clip-rule="evenodd" fill="#B9B9B9" fill-opacity="1.000000" fill-rule="evenodd"/>
</svg>
